<svg width="738" height="87" viewBox="0 0 738 87" fill="none" xmlns="http://www.w3.org/2000/svg">
<path d="M737.703 43.1561C737.703 52.0171 736.103 59.6747 732.903 66.129C729.703 72.5833 725.314 77.5607 719.735 81.0613C714.155 84.562 707.783 86.3123 700.618 86.3123C693.453 86.3123 687.08 84.562 681.501 81.0613C675.922 77.5607 671.533 72.5833 668.333 66.129C665.133 59.6747 663.533 52.0171 663.533 43.1561C663.533 34.2952 665.133 26.6376 668.333 20.1833C671.533 13.729 675.922 8.75156 681.501 5.25094C687.08 1.75031 693.453 0 700.618 0C707.783 0 714.155 1.75031 719.735 5.25094C725.314 8.75156 729.703 13.729 732.903 20.1833C736.103 26.6376 737.703 34.2952 737.703 43.1561ZM727.857 43.1561C727.857 35.8814 726.64 29.7416 724.206 24.7368C721.799 19.732 718.531 15.9443 714.402 13.3735C710.299 10.8027 705.705 9.51732 700.618 9.51732C695.531 9.51732 690.923 10.8027 686.793 13.3735C682.691 15.9443 679.423 19.732 676.989 24.7368C674.582 29.7416 673.379 35.8814 673.379 43.1561C673.379 50.4309 674.582 56.5706 676.989 61.5754C679.423 66.5802 682.691 70.368 686.793 72.9388C690.923 75.5096 695.531 76.7949 700.618 76.7949C705.705 76.7949 710.299 75.5096 714.402 72.9388C718.531 70.368 721.799 66.5802 724.206 61.5754C726.64 56.5706 727.857 50.4309 727.857 43.1561Z" fill="white"/>
<path d="M590.367 85.1644H579.701L610.55 1.14941H621.052L651.902 85.1644H641.236L616.13 14.4408H615.473L590.367 85.1644ZM594.305 52.346H637.297V61.3711H594.305V52.346Z" fill="white"/>
<path d="M527.99 85.1644H502.063V1.14941H529.139C537.289 1.14941 544.262 2.83136 550.06 6.19524C555.858 9.53177 560.302 14.3314 563.393 20.5943C566.483 26.8298 568.028 34.296 568.028 42.9928C568.028 51.7444 566.469 59.2789 563.352 65.5965C560.234 71.8866 555.694 76.7273 549.732 80.1186C543.77 83.4825 536.523 85.1644 527.99 85.1644ZM512.237 76.1394H527.334C534.28 76.1394 540.037 74.7993 544.604 72.1191C549.171 69.4389 552.576 65.6238 554.819 60.6737C557.062 55.7236 558.183 49.83 558.183 42.9928C558.183 36.2104 557.075 30.3714 554.86 25.476C552.645 20.5533 549.336 16.7792 544.932 14.1537C540.529 11.5009 535.046 10.1745 528.482 10.1745H512.237V76.1394Z" fill="white"/>
<path d="M437.663 1.14941V85.1644H427.818L382.036 19.1995H381.216V85.1644H371.042V1.14941H380.888L426.833 67.2784H427.654V1.14941H437.663Z" fill="white"/>
<path d="M336.848 27.4033C335.945 24.6411 334.756 22.1661 333.279 19.9782C331.829 17.7629 330.093 15.8759 328.069 14.317C326.072 12.7581 323.802 11.5685 321.259 10.748C318.716 9.92755 315.926 9.51732 312.89 9.51732C307.913 9.51732 303.387 10.8027 299.312 13.3735C295.237 15.9443 291.996 19.732 289.589 24.7368C287.183 29.7416 285.979 35.8814 285.979 43.1561C285.979 50.4309 287.196 56.5706 289.63 61.5754C292.064 66.5802 295.36 70.368 299.517 72.9388C303.674 75.5096 308.35 76.7949 313.547 76.7949C318.36 76.7949 322.599 75.7694 326.264 73.7182C329.956 71.6397 332.828 68.7134 334.879 64.9393C336.957 61.1379 337.996 56.6664 337.996 51.5248L341.114 52.1812H315.844V43.1561H347.842V52.1812C347.842 59.1004 346.365 65.1171 343.411 70.2313C340.485 75.3455 336.438 79.311 331.269 82.1279C326.127 84.9175 320.22 86.3123 313.547 86.3123C306.108 86.3123 299.572 84.562 293.938 81.0613C288.331 77.5607 283.956 72.5833 280.81 66.129C277.693 59.6747 276.134 52.0171 276.134 43.1561C276.134 36.5104 277.023 30.5347 278.8 25.2291C280.605 19.8961 283.149 15.3563 286.431 11.6095C289.712 7.86274 293.596 4.99113 298.081 2.99468C302.566 0.998226 307.503 0 312.89 0C317.321 0 321.45 0.670042 325.279 2.01012C329.135 3.32286 332.568 5.19624 335.576 7.63027C338.612 10.0369 341.141 12.9222 343.165 16.2861C345.189 19.6226 346.584 23.3284 347.35 27.4033H336.848Z" fill="white"/>
<path d="M253.241 1.14941V85.1644H243.067V1.14941H253.241Z" fill="white"/>
<path d="M209.569 22.1524C209.077 17.9954 207.081 14.7683 203.58 12.471C200.079 10.1737 195.786 9.02505 190.699 9.02505C186.979 9.02505 183.725 9.62672 180.935 10.8301C178.173 12.0334 176.013 13.688 174.454 15.7938C172.922 17.8997 172.156 20.2927 172.156 22.9728C172.156 25.2154 172.69 27.1435 173.756 28.7571C174.85 30.3433 176.245 31.6697 177.941 32.7363C179.636 33.7756 181.414 34.637 183.274 35.3208C185.133 35.9771 186.843 36.5104 188.402 36.9206L196.934 39.2179C199.122 39.7923 201.556 40.5854 204.236 41.5973C206.944 42.6092 209.528 43.9903 211.99 45.7406C214.478 47.4635 216.53 49.6788 218.143 52.3863C219.757 55.0938 220.564 58.4167 220.564 62.3549C220.564 66.8947 219.374 70.997 216.995 74.6618C214.643 78.3265 211.197 81.2391 206.657 83.3996C202.144 85.5602 196.661 86.6405 190.207 86.6405C184.19 86.6405 178.98 85.6696 174.577 83.7278C170.201 81.7861 166.755 79.0786 164.239 75.6053C161.75 72.132 160.342 68.0981 160.014 63.5035H170.516C170.789 66.676 171.856 69.3014 173.715 71.3799C175.602 73.4311 177.982 74.9626 180.853 75.9745C183.752 76.959 186.87 77.4513 190.207 77.4513C194.09 77.4513 197.577 76.8223 200.667 75.5643C203.758 74.2789 206.206 72.5012 208.011 70.2313C209.816 67.934 210.718 65.2538 210.718 62.1908C210.718 59.4012 209.939 57.1313 208.38 55.381C206.821 53.6307 204.77 52.2085 202.226 51.1146C199.683 50.0206 196.934 49.0634 193.981 48.243L183.643 45.2893C177.079 43.4023 171.883 40.7084 168.054 37.2078C164.225 33.7072 162.311 29.1263 162.311 23.4651C162.311 18.7612 163.583 14.6589 166.126 11.1582C168.697 7.63027 172.143 4.89541 176.464 2.95365C180.812 0.984552 185.667 0 191.027 0C196.442 0 201.255 0.970876 205.467 2.91263C209.679 4.82703 213.015 7.4525 215.477 10.789C217.965 14.1256 219.278 17.9134 219.415 22.1524H209.569Z" fill="white"/>
<path d="M88.8066 85.1644V1.14941H139.511V10.1745H98.9803V38.5623H136.886V47.5874H98.9803V76.1394H140.167V85.1644H88.8066Z" fill="white"/>
<path d="M25.9265 85.1644H0V1.14941H27.0751C35.225 1.14941 42.1989 2.83136 47.9968 6.19524C53.7947 9.53177 58.2389 14.3314 61.3293 20.5943C64.4197 26.8298 65.9649 34.296 65.9649 42.9928C65.9649 51.7444 64.406 59.2789 61.2883 65.5965C58.1705 71.8866 53.6307 76.7273 47.6687 80.1186C41.7067 83.4825 34.4593 85.1644 25.9265 85.1644ZM10.1737 76.1394H25.2701C32.2167 76.1394 37.9736 74.7993 42.5408 72.1191C47.108 69.4389 50.5129 65.6238 52.7555 60.6737C54.9981 55.7236 56.1194 49.83 56.1194 42.9928C56.1194 36.2104 55.0118 30.3714 52.7965 25.476C50.5813 20.5533 47.2721 16.7792 42.869 14.1537C38.4658 11.5009 32.9824 10.1745 26.4188 10.1745H10.1737V76.1394Z" fill="white"/>
</svg>
